<?xml version="1.0" encoding="utf-8"?>
<!-- Generator: Adobe Illustrator 22.0.1, SVG Export Plug-In . SVG Version: 6.00 Build 0)  -->
<svg version="1.0" id="Layer_1" xmlns="http://www.w3.org/2000/svg" xmlns:xlink="http://www.w3.org/1999/xlink" x="0px" y="0px"
	 viewBox="0 0 128 128" style="enable-background:new 0 0 128 128;" xml:space="preserve">
<style type="text/css">
	.st0{fill:#FFFFFF;}
</style>
<g>
	<g>
		<path class="st0" d="M57,44.7c3.8-3.3,9.4-3.3,13.3,0l37.2,31.8c1.2-4,1.8-8.3,1.8-12.7c0-25.2-20.4-45.6-45.6-45.6
			S18,38.6,18,63.8c0,4.4,0.6,8.6,1.8,12.7L57,44.7z M83.7,50h7.9c1.3,0,2.4,1.1,2.4,2.4v6.5c0,0.7-0.8,1-1.3,0.6l-9.5-8.1
			C82.6,50.9,83,50,83.7,50z"/>
		<path class="st0" d="M65.5,50.3c-1.1-0.9-2.7-0.9-3.8,0L22.5,83.8c7.4,15.2,23,25.7,41,25.7s33.6-10.5,41-25.7L65.5,50.3z"/>
	</g>
</g>
</svg>
