<svg id="a2dd3a3e-cf9b-44fa-94b6-ce595bd9abdd" data-name="Layer 1" xmlns="http://www.w3.org/2000/svg" viewBox="0 0 300 300">
  <defs>
    <style>
      .ff5f084d-de17-461b-9665-562e54e5b3ef {
        fill: white;
      }
    </style>
  </defs>
  <title>Logo White</title>
  <path class="ff5f084d-de17-461b-9665-562e54e5b3ef" d="M110.07,164.21l-6.25-10.39c-9.31,4.34-14.41,10.41-19.37,16.29-.86,1-1.46,1.75-1.89,2.28a36.49,36.49,0,0,1-2.89,3.18l-.13.15c-3.15,3.23-9.14,9.38-18.22,13.52a100.76,100.76,0,0,0,35.85,45,38.61,38.61,0,0,1,4.25-6.59,11.23,11.23,0,0,0,.32-5.61l-6.6-34.18-.58-3,2.38-1.87L108.29,174a7.43,7.43,0,0,0,2.76-4.75,7.65,7.65,0,0,0-1-5.07m88.51-79.42c-12.25-9-17-27.85-17.23-28.65l-.46-1.84a95.76,95.76,0,0,0-28.72-4.37c-54.29,0-98.3,45.1-98.3,100.75a105.13,105.13,0,0,0,.7,12.1A157,157,0,0,0,66.08,148c10.36-14.32,18.07-22.86,29.5-32.6,7.46-6.36,14.5-12.37,25.75-17a81.89,81.89,0,0,1,29.44-5.89,57.07,57.07,0,0,1,17.54,2.62c1.82.58,2.13.68,4.54,1.55,5.07,1.82,10.83,3.88,17,3.88a25.63,25.63,0,0,0,8-1.25,28.18,28.18,0,0,0,7.6-3.84c.56-2,1.28-4.23,1.93-6.18a35.53,35.53,0,0,1-8.82-4.55m46.1,31.75c-4.93-.1-8.05-.41-8.2-.42l-1.21-.13a46.46,46.46,0,0,1-2.14,6.72,47.26,47.26,0,0,1-8.6,13.9c-.76,2-2.69,6.88-4.95,12.07-5.78,13.3-8.15,15.65-9.92,16.82-2.94,1.93-7.1,2.91-12.35,2.91a45,45,0,0,1-6.37-.45l-6.58-1.05a44.91,44.91,0,0,1-7.57.65l-1.1,0h-.13A72.84,72.84,0,0,1,162.09,178a71.81,71.81,0,0,1-13.72,6.45,27.13,27.13,0,0,0-8.2,4.62l-16.68,15c.3,2.94.77,8,1.14,13.17.33,4.71.51,8.58.52,11.51,0,5.46-.5,7.86-2.06,9.51a65.71,65.71,0,0,0-5.29,6.8,96,96,0,0,0,34.37,6.33c54.29,0,98.3-45.11,98.3-100.76a102.82,102.82,0,0,0-5.79-34.14M116,150.48l-.21-.4c-1.4-2.55-2.58-4.76-1.89-6.26a4,4,0,0,1,1.6-1.7L128.76,134a68.67,68.67,0,0,0-30.4,11c-15.67,10.56-18,19.26-31.74,31.16-6.3,5.44-21.23,14.27-35.21,8.61-13.08-5.31-18.8-21.15-19.84-24.62,0,0,1.57,17.95,17.32,26.07,10.1,5.06,20.16,2,25.16.51,11.25-3.4,18.56-10.9,22.07-14.51a56.39,56.39,0,0,0,4.68-5.34c5.1-6.06,10.88-12.93,21.39-17.73,1.18-.55,2.39-1.05,3.6-1.5l8.38,14a12.66,12.66,0,0,1,1.65,8.43,12.4,12.4,0,0,1-4.6,7.91l-11.34,8.9,6.6,34.2a16.57,16.57,0,0,1-.78,9l0,.08c-1.57,1.83-8.36,10.16-7.18,21.45a26,26,0,0,0,3,9.7c-.72-6.15-.7-14.75,3.62-22.94,1.57-3,3.24-4.58,3.86-5.75,2.66-5.07-3.27-43.49-3.27-43.49s7.18-5.65,8.71-6.84A20.24,20.24,0,0,0,119.8,176a20.7,20.7,0,0,0,1.89-5.21,18.65,18.65,0,0,0-.22-7.91c-.43-1.92-3.6-9-5.43-12.39M245.13,91.64a6.43,6.43,0,0,0-4.06-1.07,10.74,10.74,0,0,0-5.45,1.59,16.47,16.47,0,0,0,2.21,2.13c1.63,1.28,3.06,2.41,5.1,2.45,1.12,0,3.21-.27,3.86-1.5s-.73-2.91-1.66-3.6m26.55,8.07c-.16-.26-.37-.53-.37-.53a5.75,5.75,0,0,0-1.06-1,5.69,5.69,0,0,0-1.48-.8L267,96.65c-2.27-.88-9.17-3.56-10.18-4.12a7.82,7.82,0,0,1-2.8-3.12,34.63,34.63,0,0,0-3.36-5.29c-1.58-2.12-7.52-8.81-13.94-11.65a60.5,60.5,0,0,0-5.86-2.26c-3.22-1-4.75-1.46-5.29-1.66A41.82,41.82,0,0,0,222.77,64c-7-9.88-16.5-14.75-23-17.17-.24.22.26,10,.26,10a48.74,48.74,0,0,0-14-1.86s4.41,17.78,15.37,25.85a36.17,36.17,0,0,0,12.23,5.29s-2.78,7.83-4,12.45a33.22,33.22,0,0,1-10.35,5.57c-10.84,3.49-20.39.07-28.05-2.68-2.4-.86-2.64-.94-4.39-1.51-19.75-6.33-40.29,1.74-43.76,3.16-10.53,4.3-17.08,9.89-24.45,16.17C88.35,128,80.77,136,70,151,61.26,163,53.74,173.44,43,176.3a24.14,24.14,0,0,1-13.91,0,26.45,26.45,0,0,1-10.38-6.58,34.23,34.23,0,0,1-7.1-9.6,39.9,39.9,0,0,0,5.05,9,25.91,25.91,0,0,0,12.91,9.55,26.43,26.43,0,0,0,10.13.87,29.63,29.63,0,0,0,20.75-9.82c13.65-14.36,22.77-29.73,41.38-46.18,7-6.22,18.78-16.35,36.55-19.53a64.78,64.78,0,0,1,27,1c1.72.51,3.14,1,4.12,1.4l0,0,0,0h0c5.52,2,12.39,4.42,20.32,4.42a35.61,35.61,0,0,0,11-1.72c4.69-1.5,13.42-7.61,13.42-7.61a45.14,45.14,0,0,1,1-7.59,45.76,45.76,0,0,1,2.58-8.13,2.48,2.48,0,0,0,0-1.46A31,31,0,0,1,206.16,80C195.71,73.22,192.63,62.09,191.87,59c0,0,5.15.71,7.32,1.78a26,26,0,0,0,7.94,15.71c4.86,4.45,15.55,6.41,15.55,6.41a99,99,0,0,1-7.75-10.2,99.39,99.39,0,0,1-7.3-13,37.84,37.84,0,0,0,2.58,11.5,36,36,0,0,0,2.14,4.51,21.36,21.36,0,0,1-5.89-6.14c-4.49-7.15-3.28-14.83-2.88-16.9.39.22,1.58,1,2,1.19a50.15,50.15,0,0,1,9.25,7.51,51.94,51.94,0,0,1,8.43,12.37,42.73,42.73,0,0,1,9.93,2.87c1.68.72,7.25,3.08,10.87,6.82a54.46,54.46,0,0,1,4.11,4.88c.42.57.52.72.75,1l.35.47c.77,1,2.06,3.42,3.91,5a13.12,13.12,0,0,0,2,1.23c1.66.89,5.52,2.42,8.82,3.87l-.12.24a3.39,3.39,0,0,0-.3,1,4.09,4.09,0,0,0,1.19,3.39,5.91,5.91,0,0,1,.57.79c.1.15.45.82.55,1l0,.09h0l0,0a4.52,4.52,0,0,1-1.1.64c-2.42.76-30.92.81-34.51-.59-1.77-.69-3.25-1.31-3.25-1.31a38.93,38.93,0,0,1-3.7,14.83,38.22,38.22,0,0,1-7.18,10.29s-6.39,20.3-9.8,26.08c-1.8,3-5.5,3.63-8,4.48a12.58,12.58,0,0,0,3.61-3.62s2-3.12,2.22-14.85a16.19,16.19,0,0,1-2.48,4.77,17.2,17.2,0,0,1-3.65,3.51,25.42,25.42,0,0,1-8,3.74,48.63,48.63,0,0,1-12.2,2h-.15a27.36,27.36,0,0,0,1.18-6.87,31.62,31.62,0,0,0-2.84-13.84,80.12,80.12,0,0,0-4.83-9.42,45.28,45.28,0,0,1,1.62,9.67,49.65,49.65,0,0,1-.48,9.66,37.41,37.41,0,0,1-.79,4.09,30.57,30.57,0,0,1-2.57,6.87,26.82,26.82,0,0,1-4.62,6.18,35.79,35.79,0,0,1-7,5.36,64.2,64.2,0,0,1-6.27,3.38l-.1.05c-3.46,1.67-11.41,4.65-11.41,4.65l-26.75,21.78,2.89,35.4c-2.09,3.12-4.23,6.59-6.31,10.4a132.82,132.82,0,0,0-7.93,17.45A86.53,86.53,0,0,1,108,250.6c6-8.42,8.6-12.51,11.61-15.71,2.11-2.24-1.17-32.8-1.17-32.8l18.64-16.8a32.46,32.46,0,0,1,9.75-5.51,66.19,66.19,0,0,0,12.81-6,67.87,67.87,0,0,0,14-11.27l0,.06,2.15,0a40.34,40.34,0,0,0,21.08-5.37c1-.57,1.88-1,2.47-1.32a25.93,25.93,0,0,1-3.33,3.85,25.39,25.39,0,0,1-4.33,3.31s10.24,1.63,15.36-1.74c3.92-2.57,13.32-27.4,13.32-27.4a42.77,42.77,0,0,0,11-23.3l5.57.56a146.28,146.28,0,0,0,28.72-.56,6.79,6.79,0,0,0,3.21-1.17c3.8-2.68,3.4-8.76,2.81-9.75m-4.11,4.88c-.12-.24-.24-.44-.28-.52-.76-1.26-1.6-1.66-1.44-2.57a.66.66,0,0,1,.09-.31.71.71,0,0,1,.25-.3c.73.35,1.4.68,1.93,1a8.74,8.74,0,0,1-.55,2.71m-24.64-7.85c1.12,0,3.21-.27,3.86-1.5s-.73-2.91-1.66-3.6a6.43,6.43,0,0,0-4.06-1.07,10.74,10.74,0,0,0-5.45,1.59,16.47,16.47,0,0,0,2.21,2.13c1.63,1.28,3.06,2.41,5.1,2.45"/>
</svg>
